# xmcd
#
# Track frame offsets:
# 150
# 14008
# 27107
# 42731
# 56534
# 78779
# 101665
# 136041
# 156842
# 180320
# 188359
# 219559
#
# Disc length: 3267 seconds
#
# Revision: 0
# Processed by: cddbd v1.5.2PL0 Copyright (c) Steve Scherf et al.
# Submitted via: Audion 3.0.2 (http://www.panic.com/audion/)
#
DISCID=920cc10c
DTITLE=Seven Nations - Live at the Palace
DYEAR=1900
DGENRE=
TTITLE0=Piper's Wedding
TTITLE1=King of Oblivion
TTITLE2=This Season
TTITLE3=Lain's Jig Medley
TTITLE4=All You People
TTITLE5=Under the Milky Way
TTITLE6=O'er the Moor and Amoung the Heather
TTITLE7=Amy's Reel
TTITLE8=Twelve
TTITLE9=Bog a Lochan
TTITLE10=Amazing Grace
TTITLE11=Untitled
EXTD=
EXTT0=
EXTT1=
EXTT2=
EXTT3=
EXTT4=
EXTT5=
EXTT6=
EXTT7=
EXTT8=
EXTT9=
EXTT10=
EXTT11=
PLAYORDER=
